<mxfile host="app.diagrams.net" modified="2023-07-17T13:35:22.077Z" agent="Mozilla/5.0 (Macintosh; Intel Mac OS X 10_15_7) AppleWebKit/537.36 (KHTML, like Gecko) Chrome/114.0.0.0 Safari/537.36" etag="0Q_fWq9ehFwLtQ-nwP9o" version="21.6.2" type="github">
  <diagram id="prtHgNgQTEPvFCAcTncT" name="Page-1">
    <mxGraphModel dx="1108" dy="513" grid="0" gridSize="10" guides="1" tooltips="1" connect="1" arrows="1" fold="1" page="1" pageScale="1" pageWidth="827" pageHeight="1169" math="0" shadow="0">
      <root>
        <mxCell id="0" />
        <mxCell id="1" parent="0" />
        <mxCell id="cjK9P-yvetpbM0La7fou-1" value="面向开源情报的信息采集系统" style="rounded=0;whiteSpace=wrap;html=1;" vertex="1" parent="1">
          <mxGeometry x="380" y="110" width="120" height="50" as="geometry" />
        </mxCell>
        <mxCell id="cjK9P-yvetpbM0La7fou-2" value="事件1管理" style="rounded=0;whiteSpace=wrap;html=1;" vertex="1" parent="1">
          <mxGeometry x="210" y="230" width="90" height="50" as="geometry" />
        </mxCell>
        <mxCell id="cjK9P-yvetpbM0La7fou-3" value="事件2管理" style="rounded=0;whiteSpace=wrap;html=1;" vertex="1" parent="1">
          <mxGeometry x="331.5" y="230" width="89" height="50" as="geometry" />
        </mxCell>
        <mxCell id="cjK9P-yvetpbM0La7fou-4" value="事件3管理" style="rounded=0;whiteSpace=wrap;html=1;" vertex="1" parent="1">
          <mxGeometry x="450.5" y="230" width="89" height="50" as="geometry" />
        </mxCell>
        <mxCell id="cjK9P-yvetpbM0La7fou-5" value="......" style="rounded=0;whiteSpace=wrap;html=1;" vertex="1" parent="1">
          <mxGeometry x="570" y="230" width="89" height="50" as="geometry" />
        </mxCell>
        <mxCell id="cjK9P-yvetpbM0La7fou-16" value="" style="endArrow=none;html=1;rounded=0;entryX=0.5;entryY=1;entryDx=0;entryDy=0;exitX=0.5;exitY=0;exitDx=0;exitDy=0;edgeStyle=orthogonalEdgeStyle;" edge="1" parent="1" source="cjK9P-yvetpbM0La7fou-2" target="cjK9P-yvetpbM0La7fou-1">
          <mxGeometry width="50" height="50" relative="1" as="geometry">
            <mxPoint x="200" y="190" as="sourcePoint" />
            <mxPoint x="250" y="140" as="targetPoint" />
          </mxGeometry>
        </mxCell>
        <mxCell id="cjK9P-yvetpbM0La7fou-17" value="" style="endArrow=none;html=1;rounded=0;entryX=0.5;entryY=1;entryDx=0;entryDy=0;exitX=0.58;exitY=0.036;exitDx=0;exitDy=0;exitPerimeter=0;edgeStyle=orthogonalEdgeStyle;" edge="1" parent="1" source="cjK9P-yvetpbM0La7fou-3" target="cjK9P-yvetpbM0La7fou-1">
          <mxGeometry width="50" height="50" relative="1" as="geometry">
            <mxPoint x="520" y="200" as="sourcePoint" />
            <mxPoint x="570" y="150" as="targetPoint" />
          </mxGeometry>
        </mxCell>
        <mxCell id="cjK9P-yvetpbM0La7fou-18" value="" style="endArrow=none;html=1;rounded=0;exitX=0.5;exitY=0;exitDx=0;exitDy=0;edgeStyle=orthogonalEdgeStyle;entryX=0.5;entryY=1;entryDx=0;entryDy=0;" edge="1" parent="1" source="cjK9P-yvetpbM0La7fou-4" target="cjK9P-yvetpbM0La7fou-1">
          <mxGeometry width="50" height="50" relative="1" as="geometry">
            <mxPoint x="360" y="210" as="sourcePoint" />
            <mxPoint x="410" y="160" as="targetPoint" />
          </mxGeometry>
        </mxCell>
        <mxCell id="cjK9P-yvetpbM0La7fou-19" value="" style="endArrow=none;html=1;rounded=0;entryX=0.5;entryY=1;entryDx=0;entryDy=0;exitX=0.5;exitY=0;exitDx=0;exitDy=0;edgeStyle=orthogonalEdgeStyle;" edge="1" parent="1" source="cjK9P-yvetpbM0La7fou-5" target="cjK9P-yvetpbM0La7fou-1">
          <mxGeometry width="50" height="50" relative="1" as="geometry">
            <mxPoint x="600" y="180" as="sourcePoint" />
            <mxPoint x="650" y="130" as="targetPoint" />
          </mxGeometry>
        </mxCell>
        <mxCell id="cjK9P-yvetpbM0La7fou-20" value="爬取任务管理" style="rounded=0;whiteSpace=wrap;html=1;" vertex="1" parent="1">
          <mxGeometry x="200" y="310" width="29" height="100" as="geometry" />
        </mxCell>
        <mxCell id="cjK9P-yvetpbM0La7fou-21" value="作者追踪任务管理" style="rounded=0;whiteSpace=wrap;html=1;" vertex="1" parent="1">
          <mxGeometry x="240" y="310" width="30" height="100" as="geometry" />
        </mxCell>
        <mxCell id="cjK9P-yvetpbM0La7fou-22" value="事件脉络图生成" style="rounded=0;whiteSpace=wrap;html=1;" vertex="1" parent="1">
          <mxGeometry x="280" y="310" width="30" height="100" as="geometry" />
        </mxCell>
        <mxCell id="cjK9P-yvetpbM0La7fou-25" value="爬取任务管理" style="rounded=0;whiteSpace=wrap;html=1;" vertex="1" parent="1">
          <mxGeometry x="321" y="310" width="29" height="100" as="geometry" />
        </mxCell>
        <mxCell id="cjK9P-yvetpbM0La7fou-26" value="作者追踪任务管理" style="rounded=0;whiteSpace=wrap;html=1;" vertex="1" parent="1">
          <mxGeometry x="361" y="310" width="30" height="100" as="geometry" />
        </mxCell>
        <mxCell id="cjK9P-yvetpbM0La7fou-27" value="事件脉络图生成" style="rounded=0;whiteSpace=wrap;html=1;" vertex="1" parent="1">
          <mxGeometry x="401" y="310" width="30" height="100" as="geometry" />
        </mxCell>
        <mxCell id="cjK9P-yvetpbM0La7fou-34" value="爬取任务管理" style="rounded=0;whiteSpace=wrap;html=1;" vertex="1" parent="1">
          <mxGeometry x="440" y="310" width="29" height="100" as="geometry" />
        </mxCell>
        <mxCell id="cjK9P-yvetpbM0La7fou-35" value="作者追踪任务管理" style="rounded=0;whiteSpace=wrap;html=1;" vertex="1" parent="1">
          <mxGeometry x="480" y="310" width="30" height="100" as="geometry" />
        </mxCell>
        <mxCell id="cjK9P-yvetpbM0La7fou-36" value="事件脉络图生成" style="rounded=0;whiteSpace=wrap;html=1;" vertex="1" parent="1">
          <mxGeometry x="520" y="310" width="30" height="100" as="geometry" />
        </mxCell>
        <mxCell id="cjK9P-yvetpbM0La7fou-37" value="" style="endArrow=none;html=1;rounded=0;entryX=0.5;entryY=1;entryDx=0;entryDy=0;exitX=0.5;exitY=0;exitDx=0;exitDy=0;edgeStyle=orthogonalEdgeStyle;" edge="1" parent="1" source="cjK9P-yvetpbM0La7fou-20" target="cjK9P-yvetpbM0La7fou-2">
          <mxGeometry width="50" height="50" relative="1" as="geometry">
            <mxPoint x="350" y="320" as="sourcePoint" />
            <mxPoint x="400" y="270" as="targetPoint" />
          </mxGeometry>
        </mxCell>
        <mxCell id="cjK9P-yvetpbM0La7fou-38" value="" style="endArrow=none;html=1;rounded=0;entryX=0.5;entryY=1;entryDx=0;entryDy=0;exitX=0.5;exitY=0;exitDx=0;exitDy=0;edgeStyle=orthogonalEdgeStyle;" edge="1" parent="1" source="cjK9P-yvetpbM0La7fou-21" target="cjK9P-yvetpbM0La7fou-2">
          <mxGeometry width="50" height="50" relative="1" as="geometry">
            <mxPoint x="60" y="370" as="sourcePoint" />
            <mxPoint x="110" y="320" as="targetPoint" />
          </mxGeometry>
        </mxCell>
        <mxCell id="cjK9P-yvetpbM0La7fou-40" value="" style="endArrow=none;html=1;rounded=0;entryX=0.5;entryY=1;entryDx=0;entryDy=0;exitX=0.5;exitY=0;exitDx=0;exitDy=0;edgeStyle=orthogonalEdgeStyle;" edge="1" parent="1" source="cjK9P-yvetpbM0La7fou-22" target="cjK9P-yvetpbM0La7fou-2">
          <mxGeometry width="50" height="50" relative="1" as="geometry">
            <mxPoint y="370" as="sourcePoint" />
            <mxPoint x="50" y="320" as="targetPoint" />
          </mxGeometry>
        </mxCell>
        <mxCell id="cjK9P-yvetpbM0La7fou-41" value="" style="endArrow=none;html=1;rounded=0;entryX=0.5;entryY=1;entryDx=0;entryDy=0;exitX=0.5;exitY=0;exitDx=0;exitDy=0;edgeStyle=orthogonalEdgeStyle;" edge="1" parent="1" source="cjK9P-yvetpbM0La7fou-25" target="cjK9P-yvetpbM0La7fou-3">
          <mxGeometry width="50" height="50" relative="1" as="geometry">
            <mxPoint x="290" y="500" as="sourcePoint" />
            <mxPoint x="340" y="450" as="targetPoint" />
          </mxGeometry>
        </mxCell>
        <mxCell id="cjK9P-yvetpbM0La7fou-42" value="" style="endArrow=none;html=1;rounded=0;entryX=0.5;entryY=1;entryDx=0;entryDy=0;exitX=0.5;exitY=0;exitDx=0;exitDy=0;" edge="1" parent="1" source="cjK9P-yvetpbM0La7fou-26" target="cjK9P-yvetpbM0La7fou-3">
          <mxGeometry width="50" height="50" relative="1" as="geometry">
            <mxPoint x="330" y="490" as="sourcePoint" />
            <mxPoint x="380" y="440" as="targetPoint" />
          </mxGeometry>
        </mxCell>
        <mxCell id="cjK9P-yvetpbM0La7fou-43" value="" style="endArrow=none;html=1;rounded=0;entryX=0.5;entryY=1;entryDx=0;entryDy=0;exitX=0.5;exitY=0;exitDx=0;exitDy=0;edgeStyle=orthogonalEdgeStyle;" edge="1" parent="1" source="cjK9P-yvetpbM0La7fou-27" target="cjK9P-yvetpbM0La7fou-3">
          <mxGeometry width="50" height="50" relative="1" as="geometry">
            <mxPoint x="320" y="520" as="sourcePoint" />
            <mxPoint x="370" y="470" as="targetPoint" />
          </mxGeometry>
        </mxCell>
        <mxCell id="cjK9P-yvetpbM0La7fou-45" value="" style="endArrow=none;html=1;rounded=0;entryX=0.5;entryY=1;entryDx=0;entryDy=0;edgeStyle=orthogonalEdgeStyle;" edge="1" parent="1" target="cjK9P-yvetpbM0La7fou-4">
          <mxGeometry width="50" height="50" relative="1" as="geometry">
            <mxPoint x="450" y="310" as="sourcePoint" />
            <mxPoint x="200" y="490" as="targetPoint" />
          </mxGeometry>
        </mxCell>
        <mxCell id="cjK9P-yvetpbM0La7fou-46" value="" style="endArrow=none;html=1;rounded=0;entryX=0.5;entryY=1;entryDx=0;entryDy=0;exitX=0.5;exitY=0;exitDx=0;exitDy=0;" edge="1" parent="1" source="cjK9P-yvetpbM0La7fou-35" target="cjK9P-yvetpbM0La7fou-4">
          <mxGeometry width="50" height="50" relative="1" as="geometry">
            <mxPoint x="360" y="510" as="sourcePoint" />
            <mxPoint x="410" y="460" as="targetPoint" />
          </mxGeometry>
        </mxCell>
        <mxCell id="cjK9P-yvetpbM0La7fou-47" value="" style="endArrow=none;html=1;rounded=0;entryX=0.5;entryY=1;entryDx=0;entryDy=0;exitX=0.5;exitY=0;exitDx=0;exitDy=0;edgeStyle=orthogonalEdgeStyle;" edge="1" parent="1" source="cjK9P-yvetpbM0La7fou-36" target="cjK9P-yvetpbM0La7fou-4">
          <mxGeometry width="50" height="50" relative="1" as="geometry">
            <mxPoint x="310" y="530" as="sourcePoint" />
            <mxPoint x="360" y="480" as="targetPoint" />
          </mxGeometry>
        </mxCell>
        <mxCell id="cjK9P-yvetpbM0La7fou-48" value="爬取任务管理" style="rounded=0;whiteSpace=wrap;html=1;" vertex="1" parent="1">
          <mxGeometry x="226" y="459" width="90" height="50" as="geometry" />
        </mxCell>
        <mxCell id="cjK9P-yvetpbM0La7fou-49" value="添加爬取任务" style="rounded=0;whiteSpace=wrap;html=1;" vertex="1" parent="1">
          <mxGeometry x="147" y="557" width="90" height="50" as="geometry" />
        </mxCell>
        <mxCell id="cjK9P-yvetpbM0La7fou-50" value="查看爬取任务" style="rounded=0;whiteSpace=wrap;html=1;" vertex="1" parent="1">
          <mxGeometry x="319" y="557" width="90" height="50" as="geometry" />
        </mxCell>
        <mxCell id="cjK9P-yvetpbM0La7fou-51" value="单条添加" style="rounded=0;whiteSpace=wrap;html=1;" vertex="1" parent="1">
          <mxGeometry x="92" y="662" width="90" height="50" as="geometry" />
        </mxCell>
        <mxCell id="cjK9P-yvetpbM0La7fou-52" value="批量添加" style="rounded=0;whiteSpace=wrap;html=1;" vertex="1" parent="1">
          <mxGeometry x="205" y="662" width="90" height="50" as="geometry" />
        </mxCell>
        <mxCell id="cjK9P-yvetpbM0La7fou-53" value="查看单条爬取结果" style="rounded=0;whiteSpace=wrap;html=1;" vertex="1" parent="1">
          <mxGeometry x="319" y="662" width="90" height="50" as="geometry" />
        </mxCell>
        <mxCell id="cjK9P-yvetpbM0La7fou-55" value="" style="endArrow=none;html=1;rounded=0;entryX=0.5;entryY=1;entryDx=0;entryDy=0;exitX=0.5;exitY=0;exitDx=0;exitDy=0;edgeStyle=orthogonalEdgeStyle;" edge="1" parent="1" source="cjK9P-yvetpbM0La7fou-49" target="cjK9P-yvetpbM0La7fou-48">
          <mxGeometry width="50" height="50" relative="1" as="geometry">
            <mxPoint x="91" y="588" as="sourcePoint" />
            <mxPoint x="141" y="538" as="targetPoint" />
          </mxGeometry>
        </mxCell>
        <mxCell id="cjK9P-yvetpbM0La7fou-56" value="" style="endArrow=none;html=1;rounded=0;entryX=0.5;entryY=1;entryDx=0;entryDy=0;exitX=0.5;exitY=0;exitDx=0;exitDy=0;edgeStyle=orthogonalEdgeStyle;" edge="1" parent="1" source="cjK9P-yvetpbM0La7fou-50" target="cjK9P-yvetpbM0La7fou-48">
          <mxGeometry width="50" height="50" relative="1" as="geometry">
            <mxPoint x="228" y="635" as="sourcePoint" />
            <mxPoint x="278" y="585" as="targetPoint" />
          </mxGeometry>
        </mxCell>
        <mxCell id="cjK9P-yvetpbM0La7fou-57" value="" style="endArrow=none;html=1;rounded=0;entryX=0.5;entryY=1;entryDx=0;entryDy=0;exitX=0.5;exitY=0;exitDx=0;exitDy=0;edgeStyle=orthogonalEdgeStyle;" edge="1" parent="1" source="cjK9P-yvetpbM0La7fou-51" target="cjK9P-yvetpbM0La7fou-49">
          <mxGeometry width="50" height="50" relative="1" as="geometry">
            <mxPoint x="42" y="653" as="sourcePoint" />
            <mxPoint x="92" y="603" as="targetPoint" />
          </mxGeometry>
        </mxCell>
        <mxCell id="cjK9P-yvetpbM0La7fou-59" value="" style="endArrow=none;html=1;rounded=0;entryX=0.5;entryY=1;entryDx=0;entryDy=0;exitX=0.5;exitY=0;exitDx=0;exitDy=0;edgeStyle=orthogonalEdgeStyle;" edge="1" parent="1" source="cjK9P-yvetpbM0La7fou-52" target="cjK9P-yvetpbM0La7fou-49">
          <mxGeometry width="50" height="50" relative="1" as="geometry">
            <mxPoint x="8" y="639" as="sourcePoint" />
            <mxPoint x="58" y="589" as="targetPoint" />
          </mxGeometry>
        </mxCell>
        <mxCell id="cjK9P-yvetpbM0La7fou-60" value="" style="endArrow=none;html=1;rounded=0;entryX=0.5;entryY=1;entryDx=0;entryDy=0;exitX=0.5;exitY=0;exitDx=0;exitDy=0;" edge="1" parent="1" source="cjK9P-yvetpbM0La7fou-53" target="cjK9P-yvetpbM0La7fou-50">
          <mxGeometry width="50" height="50" relative="1" as="geometry">
            <mxPoint x="539" y="701" as="sourcePoint" />
            <mxPoint x="589" y="651" as="targetPoint" />
          </mxGeometry>
        </mxCell>
        <mxCell id="cjK9P-yvetpbM0La7fou-63" value="添加作者追踪任务" style="rounded=0;whiteSpace=wrap;html=1;" vertex="1" parent="1">
          <mxGeometry x="92" y="738" width="90" height="50" as="geometry" />
        </mxCell>
        <mxCell id="cjK9P-yvetpbM0La7fou-64" value="添加作者追踪任务" style="rounded=0;whiteSpace=wrap;html=1;" vertex="1" parent="1">
          <mxGeometry x="205" y="735" width="90" height="50" as="geometry" />
        </mxCell>
        <mxCell id="cjK9P-yvetpbM0La7fou-65" value="" style="endArrow=none;html=1;rounded=0;entryX=0.5;entryY=1;entryDx=0;entryDy=0;exitX=0.5;exitY=0;exitDx=0;exitDy=0;" edge="1" parent="1" source="cjK9P-yvetpbM0La7fou-63" target="cjK9P-yvetpbM0La7fou-51">
          <mxGeometry width="50" height="50" relative="1" as="geometry">
            <mxPoint x="39" y="763" as="sourcePoint" />
            <mxPoint x="89" y="713" as="targetPoint" />
          </mxGeometry>
        </mxCell>
        <mxCell id="cjK9P-yvetpbM0La7fou-67" value="" style="endArrow=none;html=1;rounded=0;entryX=0.5;entryY=1;entryDx=0;entryDy=0;exitX=0.5;exitY=0;exitDx=0;exitDy=0;" edge="1" parent="1" source="cjK9P-yvetpbM0La7fou-64" target="cjK9P-yvetpbM0La7fou-52">
          <mxGeometry width="50" height="50" relative="1" as="geometry">
            <mxPoint x="192" y="892" as="sourcePoint" />
            <mxPoint x="242" y="842" as="targetPoint" />
          </mxGeometry>
        </mxCell>
        <mxCell id="cjK9P-yvetpbM0La7fou-69" value="作者追踪任务管理" style="rounded=0;whiteSpace=wrap;html=1;" vertex="1" parent="1">
          <mxGeometry x="581" y="455" width="90" height="50" as="geometry" />
        </mxCell>
        <mxCell id="cjK9P-yvetpbM0La7fou-70" value="查看作者追踪任务" style="rounded=0;whiteSpace=wrap;html=1;" vertex="1" parent="1">
          <mxGeometry x="510" y="550" width="90" height="50" as="geometry" />
        </mxCell>
        <mxCell id="cjK9P-yvetpbM0La7fou-71" value="停止作者追踪任务" style="rounded=0;whiteSpace=wrap;html=1;" vertex="1" parent="1">
          <mxGeometry x="655" y="550" width="90" height="50" as="geometry" />
        </mxCell>
        <mxCell id="cjK9P-yvetpbM0La7fou-72" value="" style="endArrow=none;html=1;rounded=0;entryX=0.5;entryY=1;entryDx=0;entryDy=0;exitX=0.5;exitY=0;exitDx=0;exitDy=0;edgeStyle=orthogonalEdgeStyle;" edge="1" parent="1" source="cjK9P-yvetpbM0La7fou-70" target="cjK9P-yvetpbM0La7fou-69">
          <mxGeometry width="50" height="50" relative="1" as="geometry">
            <mxPoint x="592" y="695" as="sourcePoint" />
            <mxPoint x="642" y="645" as="targetPoint" />
          </mxGeometry>
        </mxCell>
        <mxCell id="cjK9P-yvetpbM0La7fou-73" value="" style="endArrow=none;html=1;rounded=0;entryX=0.5;entryY=1;entryDx=0;entryDy=0;exitX=0.5;exitY=0;exitDx=0;exitDy=0;edgeStyle=orthogonalEdgeStyle;" edge="1" parent="1" source="cjK9P-yvetpbM0La7fou-71" target="cjK9P-yvetpbM0La7fou-69">
          <mxGeometry width="50" height="50" relative="1" as="geometry">
            <mxPoint x="592" y="680" as="sourcePoint" />
            <mxPoint x="642" y="630" as="targetPoint" />
          </mxGeometry>
        </mxCell>
      </root>
    </mxGraphModel>
  </diagram>
</mxfile>
